<mxfile host="app.diagrams.net" modified="2021-03-26T09:58:51.528Z" agent="5.0 (Windows NT 10.0; Win64; x64) AppleWebKit/537.36 (KHTML, like Gecko) Chrome/89.0.4389.90 Safari/537.36" etag="r68hDN_oXKvUfW0Wm8E5" version="14.4.9" type="github" pages="4">
  <diagram id="GY9l7EUMePsjUNS4RH4h" name="Page-1">
    <mxGraphModel dx="1038" dy="580" grid="1" gridSize="10" guides="1" tooltips="1" connect="1" arrows="1" fold="1" page="1" pageScale="1" pageWidth="827" pageHeight="1169" math="0" shadow="0">
      <root>
        <mxCell id="0" />
        <mxCell id="1" parent="0" />
        <mxCell id="0voUE8gXKfir5A6EniUA-17" style="edgeStyle=orthogonalEdgeStyle;rounded=0;orthogonalLoop=1;jettySize=auto;html=1;exitX=1;exitY=0.5;exitDx=0;exitDy=0;" edge="1" parent="1" source="0voUE8gXKfir5A6EniUA-1">
          <mxGeometry relative="1" as="geometry">
            <mxPoint x="350" y="260" as="targetPoint" />
          </mxGeometry>
        </mxCell>
        <mxCell id="0voUE8gXKfir5A6EniUA-23" value="bookingEvent&lt;br&gt;BOOKING_CREATED" style="edgeLabel;html=1;align=center;verticalAlign=middle;resizable=0;points=[];" vertex="1" connectable="0" parent="0voUE8gXKfir5A6EniUA-17">
          <mxGeometry x="-0.3467" y="-1" relative="1" as="geometry">
            <mxPoint x="11" y="-1" as="offset" />
          </mxGeometry>
        </mxCell>
        <mxCell id="fpkGEzJtpHJCCHxEl6xy-5" style="edgeStyle=orthogonalEdgeStyle;rounded=0;orthogonalLoop=1;jettySize=auto;html=1;exitX=0.5;exitY=0;exitDx=0;exitDy=0;entryX=0.5;entryY=1;entryDx=0;entryDy=0;entryPerimeter=0;" edge="1" parent="1" source="0voUE8gXKfir5A6EniUA-1" target="fpkGEzJtpHJCCHxEl6xy-4">
          <mxGeometry relative="1" as="geometry" />
        </mxCell>
        <mxCell id="fpkGEzJtpHJCCHxEl6xy-6" value="save(booking)&lt;br&gt;BOOKING_CREATED" style="edgeLabel;html=1;align=center;verticalAlign=middle;resizable=0;points=[];" vertex="1" connectable="0" parent="fpkGEzJtpHJCCHxEl6xy-5">
          <mxGeometry x="0.2036" y="-1" relative="1" as="geometry">
            <mxPoint as="offset" />
          </mxGeometry>
        </mxCell>
        <mxCell id="0voUE8gXKfir5A6EniUA-1" value="Booking" style="rounded=1;whiteSpace=wrap;html=1;" vertex="1" parent="1">
          <mxGeometry x="50" y="230" width="120" height="60" as="geometry" />
        </mxCell>
        <mxCell id="0voUE8gXKfir5A6EniUA-18" style="edgeStyle=orthogonalEdgeStyle;rounded=0;orthogonalLoop=1;jettySize=auto;html=1;exitX=0;exitY=0.5;exitDx=0;exitDy=0;entryX=0;entryY=0.5;entryDx=0;entryDy=0;" edge="1" parent="1" target="0voUE8gXKfir5A6EniUA-2">
          <mxGeometry relative="1" as="geometry">
            <mxPoint x="350" y="110" as="sourcePoint" />
          </mxGeometry>
        </mxCell>
        <mxCell id="0voUE8gXKfir5A6EniUA-22" value="bookingEvent&lt;br&gt;BOOKING_CREATED" style="edgeLabel;html=1;align=center;verticalAlign=middle;resizable=0;points=[];" vertex="1" connectable="0" parent="0voUE8gXKfir5A6EniUA-18">
          <mxGeometry x="-0.36" y="2" relative="1" as="geometry">
            <mxPoint x="19" y="2" as="offset" />
          </mxGeometry>
        </mxCell>
        <mxCell id="0voUE8gXKfir5A6EniUA-2" value="Tour Planner" style="rounded=1;whiteSpace=wrap;html=1;" vertex="1" parent="1">
          <mxGeometry x="540" y="80" width="120" height="60" as="geometry" />
        </mxCell>
        <mxCell id="0voUE8gXKfir5A6EniUA-19" style="edgeStyle=orthogonalEdgeStyle;rounded=0;orthogonalLoop=1;jettySize=auto;html=1;exitX=0;exitY=0.5;exitDx=0;exitDy=0;entryX=0;entryY=0.5;entryDx=0;entryDy=0;" edge="1" parent="1" target="0voUE8gXKfir5A6EniUA-3">
          <mxGeometry relative="1" as="geometry">
            <mxPoint x="350" y="230" as="sourcePoint" />
          </mxGeometry>
        </mxCell>
        <mxCell id="0voUE8gXKfir5A6EniUA-26" value="bookingEvent&lt;br&gt;BOOKING_CREATED" style="edgeLabel;html=1;align=center;verticalAlign=middle;resizable=0;points=[];" vertex="1" connectable="0" parent="0voUE8gXKfir5A6EniUA-19">
          <mxGeometry x="-0.2021" y="1" relative="1" as="geometry">
            <mxPoint x="14" y="1" as="offset" />
          </mxGeometry>
        </mxCell>
        <mxCell id="0voUE8gXKfir5A6EniUA-3" value="RoomBooking" style="rounded=1;whiteSpace=wrap;html=1;" vertex="1" parent="1">
          <mxGeometry x="540" y="200" width="120" height="60" as="geometry" />
        </mxCell>
        <mxCell id="0voUE8gXKfir5A6EniUA-20" style="edgeStyle=orthogonalEdgeStyle;rounded=0;orthogonalLoop=1;jettySize=auto;html=1;exitX=0;exitY=0.5;exitDx=0;exitDy=0;entryX=0;entryY=0.5;entryDx=0;entryDy=0;" edge="1" parent="1" target="0voUE8gXKfir5A6EniUA-4">
          <mxGeometry relative="1" as="geometry">
            <mxPoint x="350" y="370" as="sourcePoint" />
            <Array as="points">
              <mxPoint x="500" y="370" />
              <mxPoint x="500" y="370" />
            </Array>
          </mxGeometry>
        </mxCell>
        <mxCell id="0voUE8gXKfir5A6EniUA-24" value="bookingEvent&lt;br&gt;BOOKING_CREATED" style="edgeLabel;html=1;align=center;verticalAlign=middle;resizable=0;points=[];" vertex="1" connectable="0" parent="0voUE8gXKfir5A6EniUA-20">
          <mxGeometry x="-0.1811" y="-2" relative="1" as="geometry">
            <mxPoint x="12" y="-2" as="offset" />
          </mxGeometry>
        </mxCell>
        <mxCell id="0voUE8gXKfir5A6EniUA-4" value="Car Booking" style="rounded=1;whiteSpace=wrap;html=1;" vertex="1" parent="1">
          <mxGeometry x="540" y="340" width="120" height="60" as="geometry" />
        </mxCell>
        <mxCell id="0voUE8gXKfir5A6EniUA-7" value="" style="shape=link;html=1;" edge="1" parent="1">
          <mxGeometry width="100" relative="1" as="geometry">
            <mxPoint x="350" y="60" as="sourcePoint" />
            <mxPoint x="350" y="430" as="targetPoint" />
          </mxGeometry>
        </mxCell>
        <mxCell id="fpkGEzJtpHJCCHxEl6xy-4" value="" style="shape=cylinder3;whiteSpace=wrap;html=1;boundedLbl=1;backgroundOutline=1;size=15;" vertex="1" parent="1">
          <mxGeometry x="80" y="40" width="60" height="80" as="geometry" />
        </mxCell>
      </root>
    </mxGraphModel>
  </diagram>
  <diagram id="QSKUXlLyUy0hGjP8u1iS" name="Page-2">
    <mxGraphModel dx="1038" dy="523" grid="1" gridSize="10" guides="1" tooltips="1" connect="1" arrows="1" fold="1" page="1" pageScale="1" pageWidth="827" pageHeight="1169" math="0" shadow="0">
      <root>
        <mxCell id="LM1MSzhg41lwmEB5DqE0-0" />
        <mxCell id="LM1MSzhg41lwmEB5DqE0-1" parent="LM1MSzhg41lwmEB5DqE0-0" />
        <mxCell id="P3yF1yXJH3nVkJpiQqvW-0" style="edgeStyle=orthogonalEdgeStyle;rounded=0;orthogonalLoop=1;jettySize=auto;html=1;exitX=0;exitY=0.5;exitDx=0;exitDy=0;" edge="1" parent="LM1MSzhg41lwmEB5DqE0-1" source="LM1MSzhg41lwmEB5DqE0-2">
          <mxGeometry relative="1" as="geometry">
            <mxPoint x="370" y="160" as="targetPoint" />
          </mxGeometry>
        </mxCell>
        <mxCell id="P3yF1yXJH3nVkJpiQqvW-3" value="RoomBookingEvent&lt;br&gt;REJECTED" style="edgeLabel;html=1;align=center;verticalAlign=middle;resizable=0;points=[];" vertex="1" connectable="0" parent="P3yF1yXJH3nVkJpiQqvW-0">
          <mxGeometry x="0.1007" relative="1" as="geometry">
            <mxPoint as="offset" />
          </mxGeometry>
        </mxCell>
        <mxCell id="LM1MSzhg41lwmEB5DqE0-2" value="RoomBooking" style="rounded=1;whiteSpace=wrap;html=1;" vertex="1" parent="LM1MSzhg41lwmEB5DqE0-1">
          <mxGeometry x="590" y="130" width="120" height="60" as="geometry" />
        </mxCell>
        <mxCell id="LM1MSzhg41lwmEB5DqE0-3" value="" style="shape=link;html=1;" edge="1" parent="LM1MSzhg41lwmEB5DqE0-1">
          <mxGeometry width="100" relative="1" as="geometry">
            <mxPoint x="370" y="85" as="sourcePoint" />
            <mxPoint x="370" y="455" as="targetPoint" />
          </mxGeometry>
        </mxCell>
        <mxCell id="P3yF1yXJH3nVkJpiQqvW-2" style="edgeStyle=orthogonalEdgeStyle;rounded=0;orthogonalLoop=1;jettySize=auto;html=1;entryX=1;entryY=0.5;entryDx=0;entryDy=0;" edge="1" parent="LM1MSzhg41lwmEB5DqE0-1" target="P3yF1yXJH3nVkJpiQqvW-1">
          <mxGeometry relative="1" as="geometry">
            <mxPoint x="370" y="270" as="sourcePoint" />
          </mxGeometry>
        </mxCell>
        <mxCell id="P3yF1yXJH3nVkJpiQqvW-4" value="RoomBookingEvent&lt;br&gt;REJECTED" style="edgeLabel;html=1;align=center;verticalAlign=middle;resizable=0;points=[];" vertex="1" connectable="0" parent="P3yF1yXJH3nVkJpiQqvW-2">
          <mxGeometry x="0.195" y="5" relative="1" as="geometry">
            <mxPoint y="-5" as="offset" />
          </mxGeometry>
        </mxCell>
        <mxCell id="P3yF1yXJH3nVkJpiQqvW-8" style="edgeStyle=orthogonalEdgeStyle;rounded=0;orthogonalLoop=1;jettySize=auto;html=1;exitX=0.5;exitY=0;exitDx=0;exitDy=0;entryX=0.5;entryY=1;entryDx=0;entryDy=0;entryPerimeter=0;" edge="1" parent="LM1MSzhg41lwmEB5DqE0-1" source="P3yF1yXJH3nVkJpiQqvW-1" target="P3yF1yXJH3nVkJpiQqvW-7">
          <mxGeometry relative="1" as="geometry" />
        </mxCell>
        <mxCell id="P3yF1yXJH3nVkJpiQqvW-9" value="What to do no bookingId&lt;br&gt;bookingId?" style="edgeLabel;html=1;align=center;verticalAlign=middle;resizable=0;points=[];" vertex="1" connectable="0" parent="P3yF1yXJH3nVkJpiQqvW-8">
          <mxGeometry x="0.2567" y="3" relative="1" as="geometry">
            <mxPoint as="offset" />
          </mxGeometry>
        </mxCell>
        <mxCell id="P3yF1yXJH3nVkJpiQqvW-1" value="booking" style="rounded=1;whiteSpace=wrap;html=1;" vertex="1" parent="LM1MSzhg41lwmEB5DqE0-1">
          <mxGeometry x="40" y="240" width="120" height="60" as="geometry" />
        </mxCell>
        <mxCell id="P3yF1yXJH3nVkJpiQqvW-7" value="" style="shape=cylinder3;whiteSpace=wrap;html=1;boundedLbl=1;backgroundOutline=1;size=15;" vertex="1" parent="LM1MSzhg41lwmEB5DqE0-1">
          <mxGeometry x="70" y="40" width="60" height="80" as="geometry" />
        </mxCell>
      </root>
    </mxGraphModel>
  </diagram>
  <diagram id="jRk-N-pbmqgP4659yKQj" name="Page-3">
    <mxGraphModel dx="979" dy="523" grid="1" gridSize="10" guides="1" tooltips="1" connect="1" arrows="1" fold="1" page="1" pageScale="1" pageWidth="827" pageHeight="1169" math="0" shadow="0">
      <root>
        <mxCell id="l4b0rBVIg-eo2lhqkgFa-0" />
        <mxCell id="l4b0rBVIg-eo2lhqkgFa-1" parent="l4b0rBVIg-eo2lhqkgFa-0" />
        <mxCell id="l4b0rBVIg-eo2lhqkgFa-5" style="edgeStyle=orthogonalEdgeStyle;rounded=0;orthogonalLoop=1;jettySize=auto;html=1;exitX=0.5;exitY=0;exitDx=0;exitDy=0;entryX=0.5;entryY=1;entryDx=0;entryDy=0;entryPerimeter=0;" edge="1" parent="l4b0rBVIg-eo2lhqkgFa-1" source="l4b0rBVIg-eo2lhqkgFa-2" target="l4b0rBVIg-eo2lhqkgFa-4">
          <mxGeometry relative="1" as="geometry" />
        </mxCell>
        <mxCell id="l4b0rBVIg-eo2lhqkgFa-2" value="Booking_Service" style="rounded=1;whiteSpace=wrap;html=1;" vertex="1" parent="l4b0rBVIg-eo2lhqkgFa-1">
          <mxGeometry x="40" y="190" width="120" height="60" as="geometry" />
        </mxCell>
        <mxCell id="l4b0rBVIg-eo2lhqkgFa-3" value="" style="endArrow=classic;html=1;exitX=1;exitY=0.5;exitDx=0;exitDy=0;" edge="1" parent="l4b0rBVIg-eo2lhqkgFa-1" source="l4b0rBVIg-eo2lhqkgFa-2">
          <mxGeometry width="50" height="50" relative="1" as="geometry">
            <mxPoint x="390" y="300" as="sourcePoint" />
            <mxPoint x="280" y="220" as="targetPoint" />
          </mxGeometry>
        </mxCell>
        <mxCell id="l4b0rBVIg-eo2lhqkgFa-4" value="" style="shape=cylinder3;whiteSpace=wrap;html=1;boundedLbl=1;backgroundOutline=1;size=15;" vertex="1" parent="l4b0rBVIg-eo2lhqkgFa-1">
          <mxGeometry x="70" y="20" width="60" height="80" as="geometry" />
        </mxCell>
        <mxCell id="l4b0rBVIg-eo2lhqkgFa-11" style="edgeStyle=orthogonalEdgeStyle;rounded=0;orthogonalLoop=1;jettySize=auto;html=1;exitX=1;exitY=0.5;exitDx=0;exitDy=0;" edge="1" parent="l4b0rBVIg-eo2lhqkgFa-1" source="l4b0rBVIg-eo2lhqkgFa-6">
          <mxGeometry relative="1" as="geometry">
            <mxPoint x="530" y="220" as="targetPoint" />
          </mxGeometry>
        </mxCell>
        <mxCell id="l4b0rBVIg-eo2lhqkgFa-6" value="&lt;font style=&quot;font-size: 8px&quot;&gt;BOOKING_EXCHANGE&lt;/font&gt;" style="shape=process;whiteSpace=wrap;html=1;backgroundOutline=1;" vertex="1" parent="l4b0rBVIg-eo2lhqkgFa-1">
          <mxGeometry x="280" y="190" width="120" height="60" as="geometry" />
        </mxCell>
        <mxCell id="l4b0rBVIg-eo2lhqkgFa-7" value="" style="shape=link;html=1;width=14;" edge="1" parent="l4b0rBVIg-eo2lhqkgFa-1">
          <mxGeometry width="100" relative="1" as="geometry">
            <mxPoint x="530" y="100" as="sourcePoint" />
            <mxPoint x="630" y="100" as="targetPoint" />
          </mxGeometry>
        </mxCell>
        <mxCell id="l4b0rBVIg-eo2lhqkgFa-8" value="" style="shape=link;html=1;width=14;" edge="1" parent="l4b0rBVIg-eo2lhqkgFa-1">
          <mxGeometry width="100" relative="1" as="geometry">
            <mxPoint x="530" y="219.5" as="sourcePoint" />
            <mxPoint x="630" y="219.5" as="targetPoint" />
          </mxGeometry>
        </mxCell>
        <mxCell id="l4b0rBVIg-eo2lhqkgFa-9" value="" style="shape=link;html=1;width=14;" edge="1" parent="l4b0rBVIg-eo2lhqkgFa-1">
          <mxGeometry width="100" relative="1" as="geometry">
            <mxPoint x="530" y="320" as="sourcePoint" />
            <mxPoint x="630" y="320" as="targetPoint" />
          </mxGeometry>
        </mxCell>
        <mxCell id="l4b0rBVIg-eo2lhqkgFa-10" value="" style="endArrow=classic;html=1;" edge="1" parent="l4b0rBVIg-eo2lhqkgFa-1">
          <mxGeometry width="50" height="50" relative="1" as="geometry">
            <mxPoint x="400" y="220" as="sourcePoint" />
            <mxPoint x="530" y="110" as="targetPoint" />
          </mxGeometry>
        </mxCell>
        <mxCell id="l4b0rBVIg-eo2lhqkgFa-13" value="" style="endArrow=classic;html=1;" edge="1" parent="l4b0rBVIg-eo2lhqkgFa-1">
          <mxGeometry width="50" height="50" relative="1" as="geometry">
            <mxPoint x="400" y="220" as="sourcePoint" />
            <mxPoint x="530" y="310" as="targetPoint" />
          </mxGeometry>
        </mxCell>
        <mxCell id="l4b0rBVIg-eo2lhqkgFa-14" value="BOOKING.ROOM.IN" style="text;html=1;align=center;verticalAlign=middle;resizable=0;points=[];autosize=1;" vertex="1" parent="l4b0rBVIg-eo2lhqkgFa-1">
          <mxGeometry x="505" y="70" width="130" height="20" as="geometry" />
        </mxCell>
        <mxCell id="l4b0rBVIg-eo2lhqkgFa-15" value="BOOKING.CAR.IN" style="text;html=1;align=center;verticalAlign=middle;resizable=0;points=[];autosize=1;" vertex="1" parent="l4b0rBVIg-eo2lhqkgFa-1">
          <mxGeometry x="490" y="190" width="120" height="20" as="geometry" />
        </mxCell>
        <mxCell id="l4b0rBVIg-eo2lhqkgFa-16" value="BOOKING.TOUR.IN" style="text;html=1;align=center;verticalAlign=middle;resizable=0;points=[];autosize=1;" vertex="1" parent="l4b0rBVIg-eo2lhqkgFa-1">
          <mxGeometry x="510" y="290" width="120" height="20" as="geometry" />
        </mxCell>
        <mxCell id="FNP2deu5AijPgsNmfRzt-4" style="edgeStyle=orthogonalEdgeStyle;rounded=0;orthogonalLoop=1;jettySize=auto;html=1;exitX=1;exitY=0.5;exitDx=0;exitDy=0;entryX=0;entryY=0.5;entryDx=0;entryDy=0;" edge="1" parent="l4b0rBVIg-eo2lhqkgFa-1" source="FNP2deu5AijPgsNmfRzt-0" target="FNP2deu5AijPgsNmfRzt-5">
          <mxGeometry relative="1" as="geometry">
            <mxPoint x="260" y="430" as="targetPoint" />
          </mxGeometry>
        </mxCell>
        <mxCell id="FNP2deu5AijPgsNmfRzt-0" value="Room_Service" style="rounded=1;whiteSpace=wrap;html=1;" vertex="1" parent="l4b0rBVIg-eo2lhqkgFa-1">
          <mxGeometry x="40" y="400" width="120" height="60" as="geometry" />
        </mxCell>
        <mxCell id="FNP2deu5AijPgsNmfRzt-7" style="edgeStyle=orthogonalEdgeStyle;rounded=0;orthogonalLoop=1;jettySize=auto;html=1;exitX=1;exitY=0.5;exitDx=0;exitDy=0;entryX=0;entryY=0.5;entryDx=0;entryDy=0;" edge="1" parent="l4b0rBVIg-eo2lhqkgFa-1" source="FNP2deu5AijPgsNmfRzt-1" target="FNP2deu5AijPgsNmfRzt-6">
          <mxGeometry relative="1" as="geometry" />
        </mxCell>
        <mxCell id="FNP2deu5AijPgsNmfRzt-1" value="Car_Service" style="rounded=1;whiteSpace=wrap;html=1;" vertex="1" parent="l4b0rBVIg-eo2lhqkgFa-1">
          <mxGeometry x="40" y="520" width="120" height="60" as="geometry" />
        </mxCell>
        <mxCell id="FNP2deu5AijPgsNmfRzt-9" style="edgeStyle=orthogonalEdgeStyle;rounded=0;orthogonalLoop=1;jettySize=auto;html=1;exitX=1;exitY=0.5;exitDx=0;exitDy=0;entryX=0;entryY=0.5;entryDx=0;entryDy=0;" edge="1" parent="l4b0rBVIg-eo2lhqkgFa-1" source="FNP2deu5AijPgsNmfRzt-2" target="FNP2deu5AijPgsNmfRzt-8">
          <mxGeometry relative="1" as="geometry" />
        </mxCell>
        <mxCell id="FNP2deu5AijPgsNmfRzt-2" value="Tour_Service" style="rounded=1;whiteSpace=wrap;html=1;" vertex="1" parent="l4b0rBVIg-eo2lhqkgFa-1">
          <mxGeometry x="40" y="640" width="120" height="60" as="geometry" />
        </mxCell>
        <mxCell id="FNP2deu5AijPgsNmfRzt-13" style="edgeStyle=orthogonalEdgeStyle;rounded=0;orthogonalLoop=1;jettySize=auto;html=1;exitX=1;exitY=0.5;exitDx=0;exitDy=0;" edge="1" parent="l4b0rBVIg-eo2lhqkgFa-1">
          <mxGeometry relative="1" as="geometry">
            <mxPoint x="470" y="430" as="targetPoint" />
            <mxPoint x="340" y="430" as="sourcePoint" />
          </mxGeometry>
        </mxCell>
        <mxCell id="FNP2deu5AijPgsNmfRzt-5" value="&lt;font style=&quot;font-size: 8px&quot;&gt;ROOM_EXCHANGE&lt;/font&gt;" style="shape=process;whiteSpace=wrap;html=1;backgroundOutline=1;" vertex="1" parent="l4b0rBVIg-eo2lhqkgFa-1">
          <mxGeometry x="280" y="400" width="120" height="60" as="geometry" />
        </mxCell>
        <mxCell id="FNP2deu5AijPgsNmfRzt-16" style="edgeStyle=orthogonalEdgeStyle;rounded=0;orthogonalLoop=1;jettySize=auto;html=1;exitX=1;exitY=0.5;exitDx=0;exitDy=0;entryX=-0.016;entryY=0.755;entryDx=0;entryDy=0;entryPerimeter=0;" edge="1" parent="l4b0rBVIg-eo2lhqkgFa-1" target="FNP2deu5AijPgsNmfRzt-15">
          <mxGeometry relative="1" as="geometry">
            <mxPoint x="340" y="550" as="sourcePoint" />
          </mxGeometry>
        </mxCell>
        <mxCell id="FNP2deu5AijPgsNmfRzt-6" value="&lt;font style=&quot;font-size: 8px&quot;&gt;CAR_EXCHANGE&lt;/font&gt;" style="shape=process;whiteSpace=wrap;html=1;backgroundOutline=1;" vertex="1" parent="l4b0rBVIg-eo2lhqkgFa-1">
          <mxGeometry x="280" y="520" width="120" height="60" as="geometry" />
        </mxCell>
        <mxCell id="FNP2deu5AijPgsNmfRzt-19" style="edgeStyle=orthogonalEdgeStyle;rounded=0;orthogonalLoop=1;jettySize=auto;html=1;exitX=1;exitY=0.5;exitDx=0;exitDy=0;" edge="1" parent="l4b0rBVIg-eo2lhqkgFa-1">
          <mxGeometry relative="1" as="geometry">
            <mxPoint x="480" y="670" as="targetPoint" />
            <mxPoint x="340" y="670" as="sourcePoint" />
          </mxGeometry>
        </mxCell>
        <mxCell id="FNP2deu5AijPgsNmfRzt-8" value="&lt;font style=&quot;font-size: 8px&quot;&gt;TOUR_EXCHANGE&lt;/font&gt;" style="shape=process;whiteSpace=wrap;html=1;backgroundOutline=1;" vertex="1" parent="l4b0rBVIg-eo2lhqkgFa-1">
          <mxGeometry x="280" y="640" width="120" height="60" as="geometry" />
        </mxCell>
        <mxCell id="FNP2deu5AijPgsNmfRzt-11" value="" style="shape=link;html=1;width=14;" edge="1" parent="l4b0rBVIg-eo2lhqkgFa-1">
          <mxGeometry width="100" relative="1" as="geometry">
            <mxPoint x="470" y="430" as="sourcePoint" />
            <mxPoint x="570" y="430" as="targetPoint" />
          </mxGeometry>
        </mxCell>
        <mxCell id="FNP2deu5AijPgsNmfRzt-12" value="ROOM.BOOKING.IN" style="text;html=1;align=center;verticalAlign=middle;resizable=0;points=[];autosize=1;" vertex="1" parent="l4b0rBVIg-eo2lhqkgFa-1">
          <mxGeometry x="450" y="400" width="130" height="20" as="geometry" />
        </mxCell>
        <mxCell id="FNP2deu5AijPgsNmfRzt-14" value="" style="shape=link;html=1;width=14;" edge="1" parent="l4b0rBVIg-eo2lhqkgFa-1">
          <mxGeometry width="100" relative="1" as="geometry">
            <mxPoint x="480" y="554.5" as="sourcePoint" />
            <mxPoint x="580" y="554.5" as="targetPoint" />
          </mxGeometry>
        </mxCell>
        <mxCell id="FNP2deu5AijPgsNmfRzt-15" value="CAR.BOOKING.IN" style="text;html=1;align=center;verticalAlign=middle;resizable=0;points=[];autosize=1;" vertex="1" parent="l4b0rBVIg-eo2lhqkgFa-1">
          <mxGeometry x="460" y="530" width="120" height="20" as="geometry" />
        </mxCell>
        <mxCell id="FNP2deu5AijPgsNmfRzt-17" value="" style="shape=link;html=1;width=14;" edge="1" parent="l4b0rBVIg-eo2lhqkgFa-1">
          <mxGeometry width="100" relative="1" as="geometry">
            <mxPoint x="485" y="670" as="sourcePoint" />
            <mxPoint x="585" y="670" as="targetPoint" />
          </mxGeometry>
        </mxCell>
        <mxCell id="FNP2deu5AijPgsNmfRzt-18" value="TOUR.BOOKING.IN" style="text;html=1;align=center;verticalAlign=middle;resizable=0;points=[];autosize=1;" vertex="1" parent="l4b0rBVIg-eo2lhqkgFa-1">
          <mxGeometry x="470" y="640" width="120" height="20" as="geometry" />
        </mxCell>
        <mxCell id="FNP2deu5AijPgsNmfRzt-20" value="BOOKING_SERVICE" style="rounded=1;whiteSpace=wrap;html=1;" vertex="1" parent="l4b0rBVIg-eo2lhqkgFa-1">
          <mxGeometry x="730" y="520" width="120" height="60" as="geometry" />
        </mxCell>
        <mxCell id="FNP2deu5AijPgsNmfRzt-22" value="" style="endArrow=classic;html=1;entryX=0;entryY=0.5;entryDx=0;entryDy=0;" edge="1" parent="l4b0rBVIg-eo2lhqkgFa-1" target="FNP2deu5AijPgsNmfRzt-20">
          <mxGeometry width="50" height="50" relative="1" as="geometry">
            <mxPoint x="570" y="435" as="sourcePoint" />
            <mxPoint x="620" y="385" as="targetPoint" />
          </mxGeometry>
        </mxCell>
        <mxCell id="FNP2deu5AijPgsNmfRzt-25" value="" style="endArrow=classic;html=1;" edge="1" parent="l4b0rBVIg-eo2lhqkgFa-1">
          <mxGeometry width="50" height="50" relative="1" as="geometry">
            <mxPoint x="585" y="680" as="sourcePoint" />
            <mxPoint x="730" y="550" as="targetPoint" />
          </mxGeometry>
        </mxCell>
        <mxCell id="FNP2deu5AijPgsNmfRzt-26" value="" style="endArrow=classic;html=1;" edge="1" parent="l4b0rBVIg-eo2lhqkgFa-1">
          <mxGeometry width="50" height="50" relative="1" as="geometry">
            <mxPoint x="580" y="554.5" as="sourcePoint" />
            <mxPoint x="730" y="550" as="targetPoint" />
          </mxGeometry>
        </mxCell>
      </root>
    </mxGraphModel>
  </diagram>
  <diagram id="BP1Qc_QX4zl3uWdglkBa" name="Page-4">
    <mxGraphModel dx="979" dy="523" grid="1" gridSize="10" guides="1" tooltips="1" connect="1" arrows="1" fold="1" page="1" pageScale="1" pageWidth="827" pageHeight="1169" math="0" shadow="0">
      <root>
        <mxCell id="Y1vu9ahoUe7Nq7FaaP2l-0" />
        <mxCell id="Y1vu9ahoUe7Nq7FaaP2l-1" parent="Y1vu9ahoUe7Nq7FaaP2l-0" />
      </root>
    </mxGraphModel>
  </diagram>
</mxfile>
